<?xml version="1.0" encoding="iso-8859-1"?>
<!-- Generator: Adobe Illustrator 18.0.0, SVG Export Plug-In . SVG Version: 6.00 Build 0)  -->
<!DOCTYPE svg PUBLIC "-//W3C//DTD SVG 1.1//EN" "http://www.w3.org/Graphics/SVG/1.1/DTD/svg11.dtd">
<svg version="1.1" fill="#fff" id="Capa_1" xmlns="http://www.w3.org/2000/svg" xmlns:xlink="http://www.w3.org/1999/xlink" x="0px" y="0px"
	 viewBox="0 0 372.479 372.479" style="enable-background:new 0 0 372.479 372.479;" xml:space="preserve">
<g>
	<path d="M187.74,78.652c-14.697,0-26.655-11.957-26.655-26.654c0-14.698,11.958-26.655,26.655-26.655
		c14.698,0,26.655,11.957,26.655,26.655C214.395,66.695,202.438,78.652,187.74,78.652z M187.74,33.343
		c-10.286,0-18.655,8.369-18.655,18.655s8.369,18.654,18.655,18.654c10.287,0,18.655-8.368,18.655-18.654
		S198.027,33.343,187.74,33.343z"/>
	<path d="M186.24,372.479c-0.298,0-0.596-0.033-0.889-0.1c-38.095-8.683-65.694-29.495-82.14-45.426
		c-11.749-11.382-19.553-21.811-23.611-27.778l-7.074,10.099c-0.749,1.069-1.973,1.705-3.276,1.705c-0.015,0-0.03,0-0.046,0
		c-1.321-0.016-2.549-0.682-3.282-1.781c-12.837-19.252-17.461-42.672-13.37-67.729c3.07-18.805,9.875-31.807,10.163-32.351
		c0.683-1.289,2.012-2.104,3.471-2.128c0.021-0.001,0.043-0.001,0.064-0.001c1.434,0,2.76,0.768,3.473,2.016
		c18.548,32.459,38.716,51.604,46.788,57.192c1.19,0.823,1.844,2.226,1.709,3.666c-0.136,1.44-1.037,2.696-2.359,3.283l-8.991,3.985
		c16.622,15.09,36.793,24.968,58.871,28.819V151.993h-63.205c-4.296,6.236-10.842,9.894-17.908,9.894
		c-12.553,0-22.766-11.616-22.766-25.894c0-14.277,10.212-25.893,22.766-25.893c7.065,0,13.611,3.657,17.908,9.894h63.205V99.113
		c-18.313-8.533-29.999-26.74-29.999-47.115C135.742,23.326,159.069,0,187.74,0c28.672,0,51.998,23.326,51.998,51.998
		c0,21.533-13.144,40.631-32.998,48.404v19.592h63.204c4.297-6.236,10.843-9.894,17.908-9.894c12.553,0,22.765,11.615,22.765,25.893
		c0,14.277-10.212,25.894-22.765,25.894c-7.065,0-13.611-3.657-17.908-9.894H206.74v153.959
		c22.078-3.852,42.248-13.729,58.871-28.819l-8.991-3.985c-1.324-0.588-2.228-1.845-2.362-3.287
		c-0.134-1.442,0.522-2.845,1.716-3.666c8.067-5.584,28.235-24.73,46.783-57.189c0.713-1.248,2.04-2.016,3.473-2.016
		c0.022,0,0.044,0,0.065,0.001c1.458,0.023,2.788,0.839,3.471,2.128c0.288,0.544,7.092,13.546,10.163,32.351
		c4.091,25.057-0.532,48.477-13.37,67.729c-0.733,1.1-1.961,1.766-3.282,1.781c-0.015,0-0.031,0-0.046,0
		c-1.304,0-2.527-0.636-3.276-1.705l-7.074-10.099c-4.059,5.968-11.863,16.398-23.612,27.778
		c-16.445,15.931-44.044,36.743-82.139,45.426C186.836,372.446,186.538,372.479,186.24,372.479z M79.749,287.99
		c0.06,0,0.12,0.001,0.18,0.004c1.367,0.061,2.608,0.817,3.289,2.005c0.335,0.581,34.26,58.277,103.021,74.375
		c68.89-16.127,102.686-73.792,103.021-74.375c0.682-1.188,1.922-1.943,3.289-2.005c1.367-0.075,2.67,0.581,3.456,1.701
		l7.007,10.004c17.898-31.707,8.232-65.716,2.694-79.955c-16.254,26.67-31.861,41.966-39.801,48.77l8.415,3.729
		c1.206,0.535,2.07,1.629,2.312,2.925c0.241,1.297-0.172,2.629-1.105,3.561c-19.722,19.722-44.706,32.12-72.251,35.855
		c-1.147,0.154-2.3-0.191-3.169-0.951c-0.87-0.76-1.369-1.858-1.369-3.013V147.993c0-2.209,1.791-4,4-4h69.418
		c1.445,0,2.777,0.779,3.485,2.038c2.77,4.919,7.333,7.855,12.208,7.855c8.142,0,14.765-8.027,14.765-17.894
		s-6.624-17.893-14.765-17.893c-4.875,0-9.438,2.937-12.208,7.855c-0.709,1.259-2.041,2.038-3.485,2.038H202.74
		c-2.209,0-4-1.791-4-4V97.592c0-1.728,1.109-3.26,2.75-3.8c18.092-5.949,30.248-22.744,30.248-41.794
		C231.738,27.737,212.001,8,187.74,8c-24.26,0-43.997,19.737-43.997,43.998c0,18.013,10.794,34.022,27.5,40.787
		c1.51,0.612,2.499,2.078,2.499,3.708v27.501c0,2.209-1.791,4-4,4h-69.419c-1.445,0-2.777-0.779-3.486-2.038
		c-2.769-4.919-7.332-7.855-12.207-7.855c-8.142,0-14.766,8.026-14.766,17.893s6.624,17.894,14.766,17.894
		c4.875,0,9.438-2.937,12.207-7.855c0.709-1.259,2.041-2.038,3.486-2.038h69.419c2.209,0,4,1.791,4,4v162.626
		c0,1.154-0.499,2.253-1.369,3.013c-0.87,0.759-2.021,1.104-3.169,0.951c-27.546-3.734-52.53-16.133-72.252-35.855
		c-0.932-0.932-1.345-2.264-1.104-3.561c0.242-1.296,1.106-2.39,2.312-2.925l8.414-3.729c-7.939-6.802-23.542-22.096-39.794-48.756
		c-5.521,14.262-15.16,48.303,2.688,79.94l7.006-10.003C77.224,288.624,78.448,287.99,79.749,287.99z"/>
</g>
<g>
</g>
<g>
</g>
<g>
</g>
<g>
</g>
<g>
</g>
<g>
</g>
<g>
</g>
<g>
</g>
<g>
</g>
<g>
</g>
<g>
</g>
<g>
</g>
<g>
</g>
<g>
</g>
<g>
</g>
</svg>
