<?xml version="1.0" ?><svg data-name="Слой 1" id="Слой_1" fill="#fff" viewBox="0 0 32 32" xmlns="http://www.w3.org/2000/svg"><path d="M19.38,3.7087a.3526.3526,0,0,0-.31-.2H14.72a.3374.3374,0,0,0-.34.34v4.69l-9.6,10.64a.34.34,0,0,0,.25.57h9.69a.3374.3374,0,0,0,.34-.34V8.7986l4.26-4.72A.3575.3575,0,0,0,19.38,3.7087Zm-5,15.36H5.8l8.58-9.51Zm.68-11.29v-3.59H18.3Z"/><path d="M23.27,19.2288l-5.15-8.47a.3512.3512,0,0,0-.39-.15.3423.3423,0,0,0-.25.33v8.47a.3373.3373,0,0,0,.34.34h5.15a.3489.3489,0,0,0,.3-.17A.3624.3624,0,0,0,23.27,19.2288Zm-5.1-.16v-6.91l4.2,6.91Z"/><path d="M7.8,25.8616a.3435.3435,0,0,0-.34.34,1.6566,1.6566,0,0,1-1.71,1.6,1.9308,1.9308,0,0,1-.42-.05,1.636,1.636,0,0,1-1.29-1.55.34.34,0,0,0-.68,0,2.3446,2.3446,0,0,0,2.39,2.29,2.5037,2.5037,0,0,0,1.43-.45,2.2607,2.2607,0,0,0,.97-1.84A.3457.3457,0,0,0,7.8,25.8616Z"/><path d="M12.91,25.8586a.3371.3371,0,0,0-.34.34.7554.7554,0,0,1-.01.15,1.7176,1.7176,0,0,1-3.41-.15.34.34,0,1,0-.68,0,2.2607,2.2607,0,0,0,.97,1.84,2.4653,2.4653,0,0,0,2.84,0,2.3035,2.3035,0,0,0,.96-1.5976l0,0V26.44l0-.0008a1.9285,1.9285,0,0,0,.01-.24A.3372.3372,0,0,0,12.91,25.8586Z"/><path d="M18.01,25.8586a.3436.3436,0,0,0-.34.34,1.2672,1.2672,0,0,1-.03.28,1.6708,1.6708,0,0,1-1.68,1.32,1.7075,1.7075,0,0,1-1.68-1.28,1.6642,1.6642,0,0,1-.03-.32.34.34,0,1,0-.68,0l0,.002,0,.0007a2.4521,2.4521,0,0,0,.02.27h.0007a2.2721,2.2721,0,0,0,.9493,1.5674,2.4654,2.4654,0,0,0,2.84,0,2.2757,2.2757,0,0,0,.9694-1.6272H18.35a1.479,1.479,0,0,0,.01-.21l0,0,0-.0022A.3456.3456,0,0,0,18.01,25.8586Z"/><path d="M23.46,26.1987a2.261,2.261,0,0,1-.97,1.84,2.4656,2.4656,0,0,1-2.84,0,2.2616,2.2616,0,0,1-.96-1.67.9166.9166,0,0,1-.01-.17.34.34,0,1,1,.68,0,.1252.1252,0,0,0,.01.06,1.7111,1.7111,0,0,0,3.41-.06.34.34,0,1,1,.68,0Z"/><path d="M28.29,25.8616a.3435.3435,0,0,0-.34.34,1.6567,1.6567,0,0,1-1.71,1.6,1.3566,1.3566,0,0,1-.29-.03,1.6265,1.6265,0,0,1-1.41-1.57.3456.3456,0,0,0-.35-.34.337.337,0,0,0-.34.34,2.2606,2.2606,0,0,0,.97,1.84,2.4721,2.4721,0,0,0,1.42.45,2.3537,2.3537,0,0,0,2.4-2.29A.3458.3458,0,0,0,28.29,25.8616Z"/><path d="M15,25.8716a1.3315,1.3315,0,0,1,.09.49.2641.2641,0,0,0,.07.19.3028.3028,0,0,0,.27.15.3452.3452,0,0,0,.27-.14v-.01a.2641.2641,0,0,0,.07-.19,2.3086,2.3086,0,0,0-.05-.46v-.01l-.01-.01a2.2223,2.2223,0,0,0-1.08-1.47,2.4672,2.4672,0,0,0-2.5,0,2.2462,2.2462,0,0,0-.93,1,2.09,2.09,0,0,0-.2.67,2.4568,2.4568,0,0,0-.02.28.3525.3525,0,0,0,.35.34.3435.3435,0,0,0,.34-.34.6168.6168,0,0,1,.01-.14,1.3286,1.3286,0,0,1,.22-.65,1.7061,1.7061,0,0,1,1.48-.82A1.6831,1.6831,0,0,1,15,25.8716Z"/><path d="M19.91,25.4688a1.6335,1.6335,0,0,1,.26.64,1.9341,1.9341,0,0,1,.02.25.3435.3435,0,0,0,.34.34.3524.3524,0,0,0,.35-.34,1.8459,1.8459,0,0,0-.04-.41,1.892,1.892,0,0,0-.24-.65,2.2567,2.2567,0,0,0-.87-.89,2.4672,2.4672,0,0,0-2.5,0,2.2931,2.2931,0,0,0-1.08,1.46,1.9919,1.9919,0,0,0-.06.49l0,.0005,0,.0025a.2641.2641,0,0,0,.07.19l.0028,0a.3148.3148,0,0,0,.5447-.02H16.71a.2724.2724,0,0,0,.06-.17,1.2527,1.2527,0,0,1,.1-.51h-.001l.001-.003a1.6859,1.6859,0,0,1,1.61-1.1A1.77,1.77,0,0,1,19.91,25.4688Z"/><path d="M24.6,24.2888a1.3213,1.3213,0,0,1,.24.12,2.23,2.23,0,0,1,1.11,1.61,1.8687,1.8687,0,0,1,.03.34.2776.2776,0,0,1-.03.13.3376.3376,0,0,1-.65-.13,1.6438,1.6438,0,0,0-1.47-1.59,1.887,1.887,0,0,0-.24-.02,1.7065,1.7065,0,0,0-1.47.8,1.4292,1.4292,0,0,0-.24.81.3435.3435,0,0,1-.34.34.3523.3523,0,0,1-.35-.34,1.8834,1.8834,0,0,1,.07-.53,2.0958,2.0958,0,0,1,.42-.86h.01a2.0584,2.0584,0,0,1,.65-.56,2.4852,2.4852,0,0,1,1.25-.34h.05a7.6246,7.6246,0,0,0,2.84-2.76H16.3c-.01,0-.02.01-.03.01s-.02-.01-.03-.01H4.85a7.6724,7.6724,0,0,0,2.94,2.81,2.513,2.513,0,0,1,.48-.05,2.4858,2.4858,0,0,1,1.25.34,2.3283,2.3283,0,0,1,.81.78,1.9387,1.9387,0,0,1,.3.79,1.58,1.58,0,0,1,.04.38.3523.3523,0,0,1-.35.34.3435.3435,0,0,1-.34-.34,1.6145,1.6145,0,0,0-.11-.58H9.86a1.7068,1.7068,0,0,0-1.59-1.03,1.73,1.73,0,0,0-.6.11H7.66a1.6113,1.6113,0,0,0-1.1,1.5.34.34,0,1,1-.68,0,2.2637,2.2637,0,0,1,1.08-1.92c-.02,0-.03-.01-.05-.03a7.0948,7.0948,0,0,1-2.92-3.33.3429.3429,0,0,1,.04-.31.35.35,0,0,1,.28-.14H15.93V8.9788a.34.34,0,1,1,.68,0v11.65h10.4a.3365.3365,0,0,1,.28.14.38.38,0,0,1,.05.31A6.999,6.999,0,0,1,24.6,24.2888Z"/></svg>