<?xml version="1.0" ?><svg id="Icons" style="enable-background:new 0 0 32 32;" version="1.1" viewBox="0 0 32 32" xml:space="preserve" xmlns="http://www.w3.org/2000/svg" xmlns:xlink="http://www.w3.org/1999/xlink"><style type="text/css">
	.st0{fill:none;stroke:#000000;stroke-width:2;stroke-linecap:round;stroke-linejoin:round;stroke-miterlimit:10;}
</style><path class="st0" d="M27,27H5c-1.1,0-2-0.9-2-2V12c0-1.1,0.9-2,2-2h22c1.1,0,2,0.9,2,2v13C29,26.1,28.1,27,27,27z"/><line class="st0" x1="9" x2="9" y1="10" y2="27"/><line class="st0" x1="23" x2="23" y1="10" y2="27"/><path class="st0" d="M21,10H11V8c0-1.1,0.9-2,2-2h6c1.1,0,2,0.9,2,2V10z"/><line class="st0" x1="5" x2="5" y1="28" y2="27"/><line class="st0" x1="27" x2="27" y1="28" y2="27"/></svg>