<?xml version="1.0" ?><svg id="outline" fill="#C0BDB8" viewBox="0 0 340 340" xmlns="http://www.w3.org/2000/svg"><title/><path d="M279.619,117.013a9.24,9.24,0,0,0,.275-1.992l4.191-2.494a6.7,6.7,0,0,1,4.721-.891,14.213,14.213,0,0,0,10.064-1.724l5.089-3.027a14.264,14.264,0,0,0,4.826-19.778,14.518,14.518,0,0,0-19.721-4.555L284.285,85.4a14.206,14.206,0,0,0-6.319,8.021,6.691,6.691,0,0,1-3.034,3.724l-4.2,2.5a9.207,9.207,0,0,0-8.855.3l-4.642,2.761A110.275,110.275,0,0,0,183.2,60.557V55.2a9.21,9.21,0,0,0-4.27-7.763V42.546a6.694,6.694,0,0,1,1.648-4.512,14.211,14.211,0,0,0,3.663-9.53V22.583A14.264,14.264,0,0,0,169.709,8.322a14.519,14.519,0,0,0-14,14.619V28.5a14.215,14.215,0,0,0,3.662,9.53,6.69,6.69,0,0,1,1.649,4.512v4.886a9.207,9.207,0,0,0-4.27,7.763v5.362a110.273,110.273,0,0,0-74.024,42.122l-4.608-2.742a9.212,9.212,0,0,0-8.854-.3l-4.2-2.5a6.688,6.688,0,0,1-3.033-3.723A14.208,14.208,0,0,0,55.716,85.4l-4.781-2.844a14.517,14.517,0,0,0-19.72,4.555,14.262,14.262,0,0,0,4.827,19.778l5.088,3.027a14.2,14.2,0,0,0,10.063,1.724,6.7,6.7,0,0,1,4.721.89l4.192,2.5a9.176,9.176,0,0,0,4.495,7.643l4.562,2.713a110.153,110.153,0,0,0-.031,89.234l-4.581,2.725a9.148,9.148,0,0,0-4.22,5.65,9.267,9.267,0,0,0-.275,1.994l-4.191,2.493a6.7,6.7,0,0,1-4.723.89,14.206,14.206,0,0,0-10.061,1.725L36.3,232.932a14.518,14.518,0,0,0-5.406,19.5,14.159,14.159,0,0,0,8.753,6.729,14.376,14.376,0,0,0,3.666.478,14.166,14.166,0,0,0,7.265-2.012l5.088-3.027a14.2,14.2,0,0,0,6.318-8.022,6.7,6.7,0,0,1,3.034-3.723l4.207-2.5a9.278,9.278,0,0,0,4.152,1,9.159,9.159,0,0,0,4.7-1.293l4.611-2.743a110.28,110.28,0,0,0,74.07,42.183v5.3a9.206,9.206,0,0,0,4.27,7.762v4.886a6.693,6.693,0,0,1-1.649,4.513,14.212,14.212,0,0,0-3.662,9.529v5.563a14.517,14.517,0,0,0,14,14.619l.271,0a14.265,14.265,0,0,0,14.259-14.263V311.5a14.213,14.213,0,0,0-3.663-9.53,6.692,6.692,0,0,1-1.648-4.512v-4.886a9.208,9.208,0,0,0,4.27-7.762v-5.3a110.277,110.277,0,0,0,74.086-42.2l4.646,2.765a9.159,9.159,0,0,0,4.7,1.292,9.271,9.271,0,0,0,4.151-1l4.208,2.5a6.7,6.7,0,0,1,3.034,3.724,14.2,14.2,0,0,0,6.317,8.02l5.09,3.028a14.159,14.159,0,0,0,7.264,2.012,14.376,14.376,0,0,0,3.666-.478,14.159,14.159,0,0,0,8.753-6.729,14.518,14.518,0,0,0-5.407-19.5l-4.78-2.844a14.208,14.208,0,0,0-10.062-1.725,6.7,6.7,0,0,1-4.722-.89l-4.192-2.494a9.258,9.258,0,0,0-.275-1.993,9.148,9.148,0,0,0-4.22-5.65l-4.62-2.749A110.157,110.157,0,0,0,270.8,125.4l4.6-2.737A9.154,9.154,0,0,0,279.619,117.013Zm-1.148-13.922a13.6,13.6,0,0,0,6.11-7.625,7.294,7.294,0,0,1,3.244-4.12L292.6,88.5a7.565,7.565,0,0,1,10.3,2.253,7.339,7.339,0,0,1-2.482,10.18l-5.088,3.027a7.3,7.3,0,0,1-5.17.885,13.6,13.6,0,0,0-9.616,1.729l-2.951,1.756-2.073-3.485ZM162.635,22.941a7.563,7.563,0,0,1,7.2-7.7,7.339,7.339,0,0,1,7.479,7.338V28.5a7.3,7.3,0,0,1-1.882,4.894A13.6,13.6,0,0,0,172,42.546V45.98h-4.056V42.546a13.6,13.6,0,0,0-3.43-9.148,7.3,7.3,0,0,1-1.882-4.894ZM163.676,55.2a2.294,2.294,0,0,1,2.291-2.291h8.015a2.293,2.293,0,0,1,2.291,2.291v4.75c-2.085-.118-4.184-.183-6.3-.183s-4.213.065-6.3.183ZM49.838,104.847a7.3,7.3,0,0,1-5.169-.885l-5.087-3.027A7.338,7.338,0,0,1,37.1,90.755,7.564,7.564,0,0,1,47.4,88.5l4.781,2.845a7.292,7.292,0,0,1,3.243,4.118,13.6,13.6,0,0,0,6.109,7.626l2.951,1.756-2.073,3.485-2.952-1.756A13.615,13.615,0,0,0,49.838,104.847Zm18.3,11.866a2.289,2.289,0,0,1-.8-3.139l4.1-6.889a2.294,2.294,0,0,1,3.14-.8l4.064,2.418a110.449,110.449,0,0,0-6.459,10.815Zm-6.662,120.2a13.6,13.6,0,0,0-6.109,7.625,7.294,7.294,0,0,1-3.244,4.12l-5.087,3.027a7.341,7.341,0,0,1-10.132-2.675,7.565,7.565,0,0,1,2.933-10.124l4.782-2.844a7.292,7.292,0,0,1,5.167-.885,13.6,13.6,0,0,0,9.616-1.73l2.951-1.756,2.074,3.486Zm13.054-2.8a2.293,2.293,0,0,1-3.141-.8l-4.1-6.889a2.29,2.29,0,0,1,.8-3.14l4.06-2.415a110.574,110.574,0,0,0,6.451,10.82Zm102.783,83.3a7.289,7.289,0,0,1-2.2,5.238,7.378,7.378,0,0,1-5.282,2.1,7.564,7.564,0,0,1-7.2-7.7V311.5a7.3,7.3,0,0,1,1.882-4.893,13.6,13.6,0,0,0,3.43-9.149v-3.434H172v3.434a13.6,13.6,0,0,0,3.43,9.148,7.3,7.3,0,0,1,1.882,4.894Zm-1.042-32.612a2.293,2.293,0,0,1-2.291,2.291h-8.015a2.294,2.294,0,0,1-2.291-2.291v-4.692c2.086.118,4.185.184,6.3.184s4.213-.066,6.3-.184Zm113.939-49.652a7.3,7.3,0,0,1,5.168.885l4.78,2.844a7.564,7.564,0,0,1,2.934,10.124,7.34,7.34,0,0,1-10.131,2.675l-5.089-3.028a7.292,7.292,0,0,1-3.243-4.118,13.6,13.6,0,0,0-6.108-7.626l-2.952-1.756,2.074-3.486,2.951,1.757A13.6,13.6,0,0,0,290.212,235.153Zm-18.3-11.867a2.29,2.29,0,0,1,.8,3.14l-4.1,6.889a2.29,2.29,0,0,1-3.14.8l-4.106-2.442a110.469,110.469,0,0,0,6.449-10.822ZM169.975,273.374A103.345,103.345,0,1,1,273.32,170.03,103.461,103.461,0,0,1,169.975,273.374ZM272.909,115.309a2.278,2.278,0,0,1-1.049,1.405l-4.084,2.429a110.453,110.453,0,0,0-6.456-10.817l4.1-2.438a2.293,2.293,0,0,1,3.141.8l4.1,6.889A2.273,2.273,0,0,1,272.909,115.309Z"/><path d="M169.975,81.9a88.131,88.131,0,1,0,88.13,88.131A88.23,88.23,0,0,0,169.975,81.9Zm62.036,35.808-7.647,4.549A72.264,72.264,0,0,0,183.2,98.847V89.916A81.187,81.187,0,0,1,232.011,117.707Zm10.731,16.33-16.589,9.869a2.3,2.3,0,0,1-3.14-.8l-4.1-6.888a2.294,2.294,0,0,1,.8-3.141l16.562-9.854A81.129,81.129,0,0,1,242.742,134.037Zm-7.284,35.993a65.194,65.194,0,0,1-3.579,21.384l-2.135-1.27a9.208,9.208,0,0,0-8.856-.3l-30.015-17.857c.06-.646.1-1.3.1-1.958,0-.691-.038-1.372-.1-2.045l29.978-17.835a9.276,9.276,0,0,0,4.152,1,9.161,9.161,0,0,0,4.7-1.294l2.16-1.285A65.215,65.215,0,0,1,235.458,170.03Zm.862,46.74-16.557-9.85a2.293,2.293,0,0,1-.8-3.14l4.1-6.889a2.294,2.294,0,0,1,3.141-.8l16.574,9.859A81.353,81.353,0,0,1,236.32,216.77ZM97.184,205.977l16.613-9.883a2.293,2.293,0,0,1,3.14.8l4.1,6.89a2.29,2.29,0,0,1-.8,3.139l-16.591,9.871A81.125,81.125,0,0,1,97.184,205.977Zm7.309-35.947a65.186,65.186,0,0,1,3.612-21.484l2.2,1.31a9.167,9.167,0,0,0,4.7,1.294,9.289,9.289,0,0,0,4.152-1l29.929,17.806c-.067.682-.1,1.374-.1,2.074,0,.67.039,1.332.1,1.987l-29.966,17.828a9.209,9.209,0,0,0-8.855.3l-2.177,1.295A65.2,65.2,0,0,1,104.493,170.03Zm-.8-46.825,16.6,9.875a2.293,2.293,0,0,1,.8,3.14l-4.1,6.888a2.292,2.292,0,0,1-3.141.8l-16.627-9.892A81.339,81.339,0,0,1,103.689,123.205Zm110.338,75.333L186.9,182.4a21,21,0,0,0,2.071-3.488L216.1,195.052Zm-88.054,0-2.074-3.487,27.089-16.116a20.96,20.96,0,0,0,2.075,3.486Zm.05-57.078,27.086,16.115a21.05,21.05,0,0,0-2.088,3.478l-27.072-16.107ZM155.9,170.03A14.074,14.074,0,1,1,169.975,184.1,14.091,14.091,0,0,1,155.9,170.03ZM186.856,157.6l27.121-16.135,2.074,3.486-27.111,16.13A21.029,21.029,0,0,0,186.856,157.6Zm29.317-30.466a9.21,9.21,0,0,0-4.488,7.639l-29.994,17.845a20.976,20.976,0,0,0-2.764-1.55V116.14a9.208,9.208,0,0,0,4.27-7.762v-2.5a65.359,65.359,0,0,1,35.113,19.976Zm-44.17,22c-.668-.065-3.388-.065-4.055,0V117.592H172Zm-10.979-32.994v34.923a20.972,20.972,0,0,0-2.741,1.535l-29.968-17.83a9.209,9.209,0,0,0-4.489-7.639l-2.168-1.29a65.316,65.316,0,0,1,35.095-19.952v2.49A9.208,9.208,0,0,0,161.024,116.141ZM123.777,212.87A9.16,9.16,0,0,0,128,207.22a9.323,9.323,0,0,0,.276-1.994l29.941-17.813A21.015,21.015,0,0,0,161.024,189v34.864a9.208,9.208,0,0,0-4.271,7.763v2.555a65.355,65.355,0,0,1-35.147-20.015Zm44.171-21.946c.667.064,3.387.064,4.055,0v31.483h-4.055Zm10.979,32.935V189a20.969,20.969,0,0,0,2.832-1.6l29.976,17.834a9.208,9.208,0,0,0,4.488,7.64l2.135,1.27A65.3,65.3,0,0,1,183.2,234.177v-2.555A9.21,9.21,0,0,0,178.927,223.859ZM176.273,89.09v19.288a2.293,2.293,0,0,1-2.291,2.291h-8.015a2.294,2.294,0,0,1-2.291-2.291V89.09c2.082-.16,4.177-.268,6.3-.268S174.192,88.93,176.273,89.09Zm-19.52.826v8.929A72.232,72.232,0,0,0,115.6,122.237l-7.647-4.549A81.193,81.193,0,0,1,156.753,89.916ZM94.394,140.389l7.656,4.555a72.45,72.45,0,0,0-.026,50.1L94.366,199.6a80.891,80.891,0,0,1,.028-59.209Zm13.511,81.924,7.647-4.549a72.259,72.259,0,0,0,41.2,23.448v8.931A81.189,81.189,0,0,1,107.905,222.313Zm55.771,28.655V231.622a2.294,2.294,0,0,1,2.291-2.291h8.015a2.293,2.293,0,0,1,2.291,2.291v19.346c-2.081.161-4.177.268-6.3.268S165.758,251.129,163.676,250.968Zm19.521-.825v-8.932a72.2,72.2,0,0,0,41.222-23.465l7.643,4.547A81.195,81.195,0,0,1,183.2,250.143Zm62.4-50.569-7.659-4.557a72.435,72.435,0,0,0-.026-50.049l7.656-4.555a80.892,80.892,0,0,1,.029,59.161Z"/></svg>